<svg width="180" height="180" viewBox="0 0 180 180" fill="none" xmlns="http://www.w3.org/2000/svg">
<rect width="180" height="180" rx="30" fill="#1C2541"/>
<path fill-rule="evenodd" clip-rule="evenodd" d="M82.4316 31.3716C84.3478 30.2964 86.7068 30.2964 88.6201 31.3716C98.0877 36.685 126.578 52.6784 136.048 57.9918C137.964 59.0641 139.144 61.0506 139.144 63.201C139.144 73.8274 139.144 105.812 139.144 116.439C139.144 118.589 137.964 120.575 136.048 121.651C126.581 126.964 98.0905 142.957 88.6201 148.271C86.7042 149.346 84.3449 149.346 82.4316 148.271C72.9641 142.957 44.4739 126.964 35.0035 121.651C33.0901 120.575 31.9106 118.592 31.9106 116.442C31.9106 105.815 31.9106 73.8303 31.9106 63.2036C31.9106 61.0535 33.0901 59.067 35.0063 57.9918C44.471 52.6784 72.9669 36.685 82.4316 31.3716Z" fill="#283593"/>
<path fill-rule="evenodd" clip-rule="evenodd" d="M32.7684 119.178C32.018 118.174 31.9106 117.22 31.9106 115.936C31.9106 105.371 31.9106 73.5703 31.9106 63.0026C31.9106 60.8637 33.0873 58.8888 34.9977 57.8222C44.4314 52.5398 72.8257 36.6393 82.2594 31.3541C84.1699 30.2846 86.7576 30.3073 88.668 31.3768C98.1021 36.6588 126.4 52.4241 135.834 57.7062C136.596 58.1353 137.177 58.6517 137.696 59.3316L32.7684 119.178Z" fill="#5C6BC0"/>
<path fill-rule="evenodd" clip-rule="evenodd" d="M85.5274 50.3171C107.333 50.3171 125.035 68.0178 125.035 89.8215C125.035 111.625 107.333 129.326 85.5274 129.326C63.7224 129.326 46.0205 111.625 46.0205 89.8215C46.0205 68.0178 63.7224 50.3171 85.5274 50.3171ZM85.5274 70.0692C96.4284 70.0692 105.281 78.9184 105.281 89.8215C105.281 100.722 96.4284 109.574 85.5274 109.574C74.6263 109.574 65.7738 100.722 65.7738 89.8215C65.7738 78.9184 74.6235 70.0692 85.5274 70.0692Z" fill="white"/>
<path fill-rule="evenodd" clip-rule="evenodd" d="M137.691 59.3588C139.147 60.7219 139.119 62.7761 139.119 64.3929C139.119 75.1015 139.028 105.559 139.144 116.268C139.156 117.385 138.786 118.562 138.233 119.448L84.3789 89.8197L137.691 59.3588Z" fill="#3949AB"/>
<path fill-rule="evenodd" clip-rule="evenodd" d="M113.747 78.5332H116.568V101.107H113.747V78.5332ZM122.213 78.5332H125.034V101.107H122.213V78.5332Z" fill="white"/>
<path fill-rule="evenodd" clip-rule="evenodd" d="M108.103 92.6423H130.678V95.464H108.103V92.6423ZM108.103 84.1771H130.678V86.9988H108.103V84.1771Z" fill="white"/>
</svg>
