<svg width="180" height="180" viewBox="0 0 180 180" fill="none" xmlns="http://www.w3.org/2000/svg">
<rect width="180" height="180" rx="30" fill="#1C2541"/>
<mask id="mask0_15_176" style="mask-type:luminance" maskUnits="userSpaceOnUse" x="31" y="32" width="118" height="117">
<path d="M31.0565 32.0295H148.804V148.653H31.0565V32.0295Z" fill="white"/>
</mask>
<g mask="url(#mask0_15_176)">
<path d="M146.583 85.1488L95.175 34.2317C95.0872 34.1448 94.9976 34.0598 94.9056 33.9773C94.8137 33.8949 94.7198 33.8144 94.6237 33.7364C94.5278 33.6585 94.4301 33.583 94.3304 33.5096C94.2307 33.4364 94.1294 33.3658 94.0262 33.2974C93.923 33.229 93.8181 33.1632 93.7117 33.1002C93.6055 33.037 93.4974 32.9763 93.3881 32.9184C93.2787 32.8603 93.1677 32.805 93.0555 32.7526C92.9435 32.6999 92.83 32.6504 92.7155 32.6031C92.6006 32.5561 92.4851 32.512 92.3683 32.4705C92.2512 32.4289 92.1335 32.3906 92.0148 32.3548C91.896 32.319 91.7767 32.2864 91.656 32.2564C91.5357 32.2267 91.4147 32.1998 91.2931 32.1755C91.1715 32.1516 91.0492 32.1308 90.9263 32.1126C90.8037 32.0947 90.6805 32.0797 90.5569 32.0675C90.4333 32.0554 90.3098 32.0465 90.1859 32.0404C90.062 32.0343 89.9378 32.0314 89.8136 32.0314C89.6897 32.0314 89.5655 32.0343 89.4417 32.0404C89.3178 32.0465 89.1942 32.0554 89.0707 32.0675C88.9471 32.0797 88.8239 32.0947 88.7013 32.1126C88.5784 32.1308 88.4561 32.1516 88.3345 32.1755C88.2129 32.1998 88.0919 32.2267 87.9716 32.2564C87.8509 32.2864 87.7315 32.319 87.6128 32.3548C87.4941 32.3906 87.3764 32.4289 87.2592 32.4705C87.1425 32.512 87.0266 32.5561 86.9121 32.6031C86.7976 32.6504 86.684 32.6999 86.5721 32.7526C86.4598 32.805 86.3489 32.8603 86.2395 32.9184C86.1301 32.9763 86.0221 33.037 85.9159 33.1002C85.8095 33.1632 85.7046 33.229 85.6014 33.2974C85.4981 33.3658 85.3969 33.4364 85.2972 33.5096C85.1975 33.583 85.0997 33.6585 85.0039 33.7364C84.9078 33.8144 84.8139 33.8949 84.722 33.9773C84.63 34.0598 84.5403 34.1448 84.4526 34.2317L73.7818 44.8006L87.3228 58.2123C90.4724 57.1189 94.0785 57.8663 96.588 60.3518C96.7364 60.4988 96.8793 60.6512 97.0171 60.8084C97.1548 60.9653 97.2868 61.1273 97.4129 61.2935C97.5394 61.4599 97.6594 61.6303 97.7736 61.805C97.8878 61.9795 97.9958 62.1578 98.0975 62.3399C98.1991 62.522 98.2942 62.7074 98.3826 62.8962C98.4714 63.0847 98.553 63.2764 98.6281 63.4707C98.703 63.665 98.771 63.8618 98.8323 64.0609C98.8936 64.2599 98.9475 64.4606 98.9946 64.6635C99.0414 64.8664 99.0814 65.0706 99.1137 65.276C99.1462 65.4815 99.1717 65.6882 99.1895 65.8953C99.2075 66.1026 99.2182 66.3103 99.2217 66.5183C99.225 66.7263 99.2208 66.9344 99.2095 67.1421C99.1982 67.3497 99.1795 67.5571 99.1537 67.7635C99.1275 67.9699 99.0943 68.1751 99.054 68.3792C99.0133 68.5834 98.9659 68.786 98.9111 68.987C98.8562 69.188 98.7946 69.3867 98.7259 69.5832L111.777 82.5102C114.934 81.4315 118.577 82.1274 121.098 84.6312C121.202 84.7347 121.304 84.8405 121.404 84.9491C121.503 85.0575 121.599 85.168 121.693 85.2811C121.787 85.3942 121.878 85.5096 121.966 85.6272C122.054 85.7448 122.139 85.8643 122.221 85.986C122.303 86.1074 122.382 86.2311 122.458 86.3566C122.534 86.4822 122.607 86.6094 122.677 86.7385C122.746 86.8676 122.813 86.9979 122.876 87.1302C122.939 87.2625 122.999 87.3964 123.056 87.5315C123.112 87.6667 123.165 87.8031 123.215 87.9409C123.265 88.0786 123.311 88.2176 123.354 88.3575C123.397 88.4975 123.437 88.6387 123.473 88.7806C123.508 88.9224 123.541 89.0653 123.57 89.2087C123.599 89.3522 123.624 89.4963 123.645 89.641C123.667 89.7858 123.685 89.9312 123.7 90.0766C123.714 90.2223 123.725 90.3683 123.733 90.5143C123.74 90.6603 123.744 90.8067 123.744 90.953C123.744 91.0993 123.74 91.2457 123.733 91.3917C123.725 91.5381 123.714 91.6838 123.7 91.8295C123.685 91.9752 123.667 92.1202 123.646 92.265C123.624 92.4097 123.599 92.5538 123.57 92.6973C123.541 92.8411 123.509 92.9836 123.473 93.1255C123.437 93.2676 123.398 93.4086 123.355 93.5485C123.312 93.6885 123.266 93.8274 123.216 93.9652C123.166 94.1032 123.113 94.2396 123.056 94.3748C123 94.51 122.94 94.6435 122.877 94.7758C122.814 94.9081 122.747 95.0388 122.678 95.1679C122.608 95.2969 122.535 95.4241 122.459 95.5497C122.383 95.6753 122.304 95.7989 122.222 95.9207C122.14 96.0421 122.055 96.1619 121.967 96.2792C121.879 96.3967 121.788 96.5121 121.694 96.6252C121.6 96.7383 121.504 96.8492 121.405 96.9575C121.306 97.0658 121.204 97.1719 121.099 97.2754C120.995 97.3786 120.888 97.4796 120.778 97.578C120.669 97.6761 120.557 97.7717 120.443 97.8643C120.328 97.9573 120.212 98.0474 120.093 98.1343C119.975 98.2215 119.854 98.3059 119.731 98.3871C119.608 98.4682 119.484 98.5465 119.357 98.6219C119.23 98.697 119.101 98.7689 118.971 98.8379C118.841 98.9069 118.709 98.9728 118.575 99.0351C118.442 99.0977 118.307 99.1571 118.17 99.213C118.034 99.269 117.896 99.3217 117.757 99.3709C117.618 99.4201 117.477 99.4658 117.336 99.5083C117.195 99.5508 117.052 99.5898 116.909 99.6252C116.766 99.6607 116.621 99.6926 116.477 99.7214C116.332 99.7498 116.186 99.7748 116.04 99.7962C115.894 99.8176 115.747 99.8355 115.6 99.8498C115.453 99.8639 115.306 99.8748 115.158 99.8818C115.011 99.8888 114.863 99.8927 114.715 99.8923C114.567 99.8923 114.42 99.8888 114.272 99.8815C114.125 99.8741 113.977 99.8636 113.831 99.8489C113.683 99.8345 113.537 99.8166 113.391 99.7952C113.245 99.7735 113.099 99.7486 112.954 99.7198C112.809 99.6914 112.665 99.6591 112.522 99.6236C112.378 99.5878 112.236 99.5489 112.095 99.5064C111.954 99.4639 111.813 99.4178 111.674 99.3683C111.535 99.3191 111.397 99.2664 111.261 99.2102C111.125 99.1542 110.989 99.0948 110.856 99.0322C110.722 98.9696 110.591 98.9037 110.46 98.8347C110.33 98.7657 110.202 98.6935 110.075 98.6181C109.948 98.543 109.823 98.4647 109.701 98.3832C109.578 98.3018 109.457 98.2174 109.339 98.1302C109.22 98.0429 109.103 97.9528 108.99 97.8602C108.875 97.7672 108.763 97.6716 108.654 97.5732C108.545 97.4748 108.438 97.3738 108.333 97.2703C105.684 94.6464 105.029 90.7833 106.368 87.5504L94.1962 75.4944V107.22C95.0856 107.656 95.8828 108.219 96.588 108.911C96.6925 109.014 96.7941 109.12 96.8935 109.229C96.9925 109.337 97.089 109.448 97.1825 109.561C97.2764 109.674 97.3671 109.789 97.4552 109.907C97.5432 110.024 97.6281 110.144 97.71 110.265C97.7923 110.387 97.8713 110.51 97.9471 110.636C98.0229 110.761 98.0958 110.888 98.1655 111.018C98.2349 111.147 98.3013 111.277 98.3646 111.409C98.4275 111.542 98.4875 111.675 98.5439 111.81C98.6004 111.945 98.6536 112.082 98.7033 112.22C98.753 112.357 98.7994 112.496 98.8423 112.636C98.8853 112.776 98.9246 112.917 98.9604 113.059C98.9962 113.201 99.0285 113.343 99.0575 113.487C99.0862 113.63 99.1114 113.774 99.133 113.919C99.155 114.064 99.173 114.209 99.1875 114.354C99.2017 114.5 99.2127 114.646 99.2201 114.792C99.2272 114.938 99.2308 115.084 99.2308 115.23C99.2308 115.377 99.2272 115.523 99.2201 115.669C99.2127 115.815 99.2017 115.961 99.1875 116.107C99.173 116.252 99.155 116.397 99.133 116.542C99.1114 116.687 99.0862 116.831 99.0575 116.974C99.0285 117.118 98.9962 117.26 98.9604 117.402C98.9246 117.544 98.8853 117.685 98.8423 117.825C98.7994 117.965 98.753 118.104 98.7033 118.241C98.6536 118.379 98.6004 118.516 98.5439 118.651C98.4875 118.786 98.4275 118.919 98.3646 119.052C98.3013 119.184 98.2349 119.314 98.1655 119.443C98.0958 119.572 98.0229 119.7 97.9471 119.825C97.8713 119.95 97.7923 120.074 97.71 120.196C97.6281 120.317 97.5432 120.437 97.4552 120.554C97.3671 120.672 97.2764 120.787 97.1825 120.9C97.089 121.013 96.9925 121.124 96.8935 121.232C96.7941 121.341 96.6925 121.447 96.588 121.55C96.4835 121.654 96.3767 121.754 96.2673 121.853C96.1576 121.951 96.046 122.046 95.9318 122.139C95.8176 122.232 95.7011 122.322 95.5828 122.409C95.464 122.496 95.3434 122.58 95.2205 122.661C95.0979 122.743 94.973 122.821 94.8466 122.896C94.7198 122.971 94.5914 123.043 94.4611 123.113C94.3307 123.181 94.1991 123.247 94.0655 123.31C93.932 123.372 93.7971 123.431 93.6607 123.487C93.5242 123.543 93.3865 123.596 93.2474 123.645C93.1084 123.695 92.968 123.74 92.8267 123.783C92.6854 123.825 92.5432 123.864 92.3999 123.9C92.2567 123.935 92.1128 123.968 91.968 123.996C91.8231 124.024 91.6776 124.049 91.5315 124.071C91.3854 124.092 91.2389 124.11 91.0921 124.125C90.945 124.139 90.7979 124.15 90.6501 124.157C90.5027 124.164 90.3553 124.168 90.2075 124.168C90.0598 124.168 89.9123 124.164 89.7646 124.157C89.6172 124.15 89.4701 124.139 89.3229 124.125C89.1762 124.11 89.0297 124.092 88.8836 124.071C88.7374 124.049 88.5919 124.024 88.4471 123.996C88.3022 123.968 88.1583 123.935 88.0151 123.9C87.8719 123.864 87.7296 123.825 87.5883 123.783C87.447 123.74 87.3067 123.694 87.1676 123.645C87.0286 123.596 86.8908 123.543 86.7544 123.487C86.6179 123.431 86.4831 123.372 86.3495 123.31C86.2159 123.247 86.0843 123.181 85.954 123.113C85.8237 123.043 85.6953 122.971 85.5685 122.896C85.442 122.821 85.3172 122.743 85.1943 122.661C85.0717 122.58 84.951 122.496 84.8323 122.409C84.7136 122.322 84.5974 122.232 84.4832 122.139C84.369 122.046 84.2571 121.951 84.1477 121.853C84.0384 121.754 83.9316 121.654 83.8271 121.55C83.7225 121.447 83.6206 121.341 83.5212 121.232C83.4219 121.124 83.3254 121.014 83.2315 120.9C83.138 120.788 83.047 120.672 82.9589 120.555C82.8709 120.437 82.7857 120.318 82.7034 120.196C82.6215 120.075 82.5421 119.951 82.4663 119.826C82.3902 119.7 82.3173 119.573 82.2476 119.444C82.1779 119.315 82.1115 119.185 82.0482 119.052C81.985 118.92 81.925 118.786 81.8685 118.651C81.8121 118.516 81.7589 118.38 81.7088 118.242C81.6592 118.104 81.6127 117.965 81.5698 117.825C81.5269 117.685 81.4875 117.544 81.4514 117.403C81.4156 117.261 81.3833 117.118 81.3543 116.974C81.3256 116.831 81.3001 116.687 81.2785 116.542C81.2569 116.397 81.2388 116.252 81.2243 116.107C81.2098 115.961 81.1988 115.815 81.1917 115.669C81.1843 115.523 81.1807 115.377 81.1807 115.23C81.1807 115.084 81.1843 114.938 81.1917 114.792C81.1988 114.646 81.2098 114.5 81.2243 114.354C81.2388 114.209 81.2569 114.064 81.2785 113.919C81.3001 113.774 81.3256 113.63 81.3543 113.487C81.3833 113.343 81.4156 113.2 81.4514 113.058C81.4875 112.916 81.5269 112.776 81.5698 112.636C81.6127 112.496 81.6592 112.357 81.7088 112.219C81.7589 112.081 81.8121 111.945 81.8685 111.81C81.925 111.674 81.985 111.541 82.0482 111.409C82.1115 111.276 82.1779 111.146 82.2476 111.017C82.3173 110.888 82.3902 110.761 82.4663 110.635C82.5421 110.51 82.6215 110.386 82.7034 110.265C82.7857 110.143 82.8709 110.023 82.9589 109.906C83.047 109.789 83.138 109.673 83.2315 109.561C83.3254 109.447 83.4219 109.337 83.5212 109.229C83.6206 109.12 83.7225 109.014 83.8271 108.911C84.6991 108.051 85.6669 107.399 86.7818 106.961V74.9407C85.7072 74.5033 84.6991 73.8581 83.8271 72.9909C83.6696 72.8353 83.5183 72.674 83.3732 72.5075C83.228 72.3407 83.0893 72.1688 82.9567 71.9921C82.8244 71.8151 82.6986 71.6336 82.5799 71.4476C82.4608 71.2617 82.3492 71.0716 82.2444 70.8773C82.1398 70.683 82.0424 70.4852 81.9527 70.2836C81.8627 70.0823 81.7805 69.8781 81.7059 69.6704C81.6311 69.4631 81.5643 69.2535 81.5056 69.041C81.4466 68.8288 81.3956 68.6144 81.3527 68.3984C81.3098 68.1824 81.2749 67.9651 81.2482 67.7466C81.2214 67.528 81.2027 67.3088 81.1924 67.0887C81.182 66.8689 81.1801 66.6487 81.1862 66.4289C81.192 66.2087 81.2065 65.9889 81.2288 65.77C81.2514 65.5508 81.282 65.3329 81.3207 65.1163C81.3595 64.8993 81.4062 64.6843 81.4611 64.4708C81.5159 64.2574 81.5788 64.0465 81.6495 63.8375C81.7198 63.6289 81.7982 63.4231 81.8843 63.2199L68.5272 49.9977L33.2763 84.8753C33.1885 84.9622 33.103 85.0514 33.0195 85.1425C32.9359 85.2335 32.855 85.3265 32.7763 85.4214C32.6972 85.5166 32.6211 85.6134 32.5469 85.7122C32.473 85.8109 32.4014 85.9112 32.3323 86.0135C32.2633 86.1157 32.1969 86.2196 32.133 86.325C32.0691 86.4305 32.0081 86.5375 31.9494 86.6458C31.891 86.7541 31.8349 86.8641 31.782 86.9753C31.7288 87.0861 31.6784 87.1986 31.631 87.3123C31.5833 87.4258 31.5387 87.5405 31.4968 87.6562C31.4549 87.7721 31.4162 87.8888 31.38 88.0064C31.3439 88.1239 31.3107 88.2425 31.2807 88.3617C31.2503 88.4812 31.2232 88.601 31.199 88.7215C31.1748 88.8422 31.1536 88.9633 31.1352 89.0851C31.1171 89.2065 31.1019 89.3285 31.0897 89.4509C31.0774 89.5733 31.0684 89.696 31.0623 89.8187C31.0561 89.9414 31.0532 90.0644 31.0532 90.1874C31.0532 90.3104 31.0561 90.4331 31.0623 90.5558C31.0684 90.6789 31.0774 90.8016 31.0897 90.9236C31.1019 91.046 31.1171 91.168 31.1352 91.2898C31.1536 91.4115 31.1748 91.5326 31.199 91.6531C31.2232 91.7735 31.2503 91.8937 31.2807 92.0129C31.3107 92.1321 31.3439 92.2506 31.38 92.3682C31.4162 92.4861 31.4549 92.6027 31.4968 92.7184C31.5387 92.834 31.5833 92.9488 31.631 93.0625C31.6784 93.1759 31.7288 93.2884 31.782 93.3996C31.8349 93.5108 31.891 93.6204 31.9494 93.7287C32.0081 93.8374 32.0691 93.9441 32.133 94.0495C32.1969 94.155 32.2633 94.2588 32.3323 94.3611C32.4014 94.4633 32.473 94.564 32.5469 94.6627C32.6211 94.7614 32.6972 94.8582 32.7763 94.9531C32.855 95.048 32.9359 95.1413 33.0195 95.2324C33.103 95.3235 33.1885 95.4123 33.2763 95.4992L84.6881 146.413C84.7758 146.5 84.8655 146.584 84.9575 146.667C85.0494 146.75 85.1433 146.83 85.2394 146.908C85.3352 146.986 85.433 147.061 85.5327 147.135C85.6324 147.208 85.7337 147.279 85.8369 147.347C85.9401 147.415 86.045 147.481 86.1511 147.544C86.2576 147.608 86.3656 147.668 86.475 147.726C86.5844 147.784 86.6953 147.839 86.8076 147.892C86.9195 147.944 87.0331 147.994 87.1476 148.041C87.2622 148.088 87.378 148.133 87.4947 148.174C87.6119 148.215 87.7296 148.254 87.8483 148.289C87.967 148.325 88.0864 148.358 88.2071 148.388C88.3274 148.418 88.4484 148.445 88.57 148.469C88.6916 148.493 88.8139 148.514 88.9368 148.532C89.0594 148.55 89.1826 148.565 89.3062 148.577C89.4294 148.589 89.5533 148.598 89.6772 148.604C89.801 148.61 89.9252 148.613 90.0491 148.613C90.1733 148.613 90.2975 148.61 90.4214 148.604C90.5453 148.598 90.6688 148.589 90.7924 148.577C90.916 148.565 91.0392 148.55 91.1618 148.532C91.2847 148.514 91.407 148.493 91.5286 148.469C91.6502 148.445 91.7712 148.418 91.8915 148.388C92.0122 148.358 92.1315 148.325 92.2503 148.289C92.369 148.254 92.4867 148.215 92.6038 148.174C92.7206 148.133 92.8361 148.088 92.951 148.041C93.0655 147.994 93.179 147.944 93.291 147.892C93.4032 147.839 93.5142 147.784 93.6236 147.726C93.7329 147.668 93.841 147.608 93.9472 147.544C94.0536 147.481 94.1585 147.415 94.2617 147.347C94.3649 147.279 94.4662 147.208 94.5659 147.135C94.6656 147.061 94.7633 146.986 94.8592 146.908C94.9553 146.83 95.0492 146.75 95.1411 146.667C95.2331 146.584 95.3227 146.5 95.4105 146.413L146.583 95.8088C146.671 95.7222 146.756 95.6331 146.84 95.542C146.923 95.451 147.005 95.358 147.083 95.2631C147.162 95.1679 147.238 95.071 147.312 94.9723C147.387 94.8736 147.458 94.7732 147.527 94.671C147.596 94.5687 147.662 94.4649 147.726 94.3595C147.79 94.254 147.851 94.147 147.91 94.0387C147.969 93.9303 148.024 93.8204 148.078 93.7092C148.13 93.598 148.181 93.4859 148.229 93.3721C148.276 93.2587 148.321 93.144 148.362 93.0283C148.404 92.9123 148.443 92.7957 148.48 92.6781C148.516 92.5605 148.549 92.442 148.579 92.3228C148.609 92.2033 148.636 92.0835 148.66 91.963C148.685 91.8422 148.706 91.7211 148.724 91.5994C148.742 91.478 148.758 91.3559 148.77 91.2335C148.782 91.1112 148.791 90.9885 148.797 90.8658C148.803 90.7431 148.806 90.6201 148.806 90.497C148.806 90.374 148.803 90.2513 148.797 90.1283C148.791 90.0056 148.782 89.8829 148.77 89.7605C148.758 89.6382 148.742 89.5164 148.724 89.3947C148.706 89.2729 148.685 89.1518 148.66 89.0314C148.636 88.9106 148.609 88.7908 148.579 88.6716C148.549 88.5524 148.516 88.4339 148.48 88.3163C148.443 88.1984 148.404 88.0818 148.362 87.9661C148.321 87.8504 148.276 87.7357 148.229 87.622C148.181 87.5085 148.13 87.3961 148.078 87.2849C148.024 87.1737 147.969 87.0641 147.91 86.9554C147.851 86.8471 147.79 86.7401 147.726 86.6346C147.662 86.5292 147.596 86.4257 147.527 86.3234C147.458 86.2212 147.387 86.1205 147.312 86.0218C147.238 85.9231 147.162 85.8262 147.083 85.7313C147.005 85.6364 146.923 85.5431 146.84 85.4521C146.756 85.361 146.671 85.2722 146.583 85.1853" fill="#F03C2E"/>
</g>
</svg>
