<svg width="180" height="180" viewBox="0 0 180 180" fill="none" xmlns="http://www.w3.org/2000/svg">
<rect width="180" height="180" rx="30" fill="#1C2541"/>
<mask id="mask0_15_177" style="mask-type:luminance" maskUnits="userSpaceOnUse" x="33" y="33" width="115" height="115">
<path d="M33.1603 33.171H147.118V147.689H33.1603V33.171Z" fill="white"/>
</mask>
<g mask="url(#mask0_15_177)">
<path d="M90.139 33.1912C58.6726 33.1912 33.1603 59.2181 33.1603 91.3191C33.1603 118.557 51.5456 141.348 76.3313 147.655C76.0654 146.87 75.8944 145.959 75.8944 144.831V134.896C73.5819 134.896 69.7076 134.896 68.7341 134.896C64.8356 134.896 61.3697 133.186 59.6887 130.008C57.8226 126.477 57.4997 121.076 52.8748 117.772C51.5027 116.673 52.5472 115.418 54.1286 115.588C57.0486 116.431 59.4704 118.475 61.7493 121.507C64.0191 124.544 65.0874 125.232 69.3276 125.232C71.3835 125.232 74.4605 125.111 77.3567 124.646C78.9143 120.611 81.6066 116.895 84.8969 115.142C65.9231 113.151 56.8682 103.521 56.8682 90.4471C56.8682 84.8184 59.2185 79.374 63.2119 74.7866C61.9015 70.2334 60.2537 60.9473 63.7153 57.4112C72.2524 57.4112 77.4137 63.0594 78.6531 64.5851C82.9074 63.0981 87.5798 62.2552 92.4894 62.2552C97.4086 62.2552 102.1 63.0981 106.364 64.5947C107.589 63.0786 112.755 57.4112 121.311 57.4112C124.787 60.9521 123.12 70.2768 121.796 74.8205C125.765 79.398 128.101 84.8283 128.101 90.4471C128.101 103.512 119.061 113.137 100.115 115.137C105.329 117.912 109.132 125.711 109.132 131.587V144.831C109.132 145.334 109.023 145.698 108.966 146.129C131.169 138.189 147.118 116.682 147.118 91.3191C147.118 59.2181 121.605 33.1912 90.139 33.1912Z" fill="black"/>
</g>
</svg>
