<svg width="361" height="728" viewBox="0 0 361 728" fill="none" xmlns="http://www.w3.org/2000/svg">
<g opacity="0.8">
<g style="mix-blend-mode:screen" filter="url(#filter0_f_17_627)">
<path d="M397.981 272.147C418.878 255.807 447.753 278.201 437.127 302.506C430.749 317.095 439.125 333.901 454.613 337.592C480.417 343.742 480.912 380.28 455.284 387.127C439.901 391.236 431.984 408.262 438.755 422.673C450.035 446.682 421.777 469.85 400.445 454.082C387.642 444.617 369.393 449.043 362.348 463.322C350.61 487.111 314.879 479.463 313.907 452.953C313.323 437.042 298.485 425.534 282.929 428.929C257.012 434.584 240.713 401.879 260.833 384.591C272.909 374.214 272.655 355.439 260.302 345.393C239.721 328.656 255.129 295.522 281.19 300.473C296.832 303.445 311.353 291.54 311.505 275.618C311.759 249.093 347.27 240.48 359.648 263.942C367.077 278.025 385.439 281.955 397.981 272.147Z" fill="url(#paint0_linear_17_627)"/>
</g>
<g style="mix-blend-mode:screen" filter="url(#filter1_f_17_627)">
<path d="M397.981 272.147C418.878 255.807 447.753 278.201 437.127 302.506C430.749 317.095 439.125 333.901 454.613 337.592C480.417 343.742 480.912 380.28 455.284 387.127C439.901 391.236 431.984 408.262 438.755 422.673C450.035 446.682 421.777 469.85 400.445 454.082C387.642 444.617 369.393 449.043 362.348 463.322C350.61 487.111 314.879 479.463 313.907 452.953C313.323 437.042 298.485 425.534 282.929 428.929C257.012 434.584 240.713 401.879 260.833 384.591C272.909 374.214 272.655 355.439 260.302 345.393C239.721 328.656 255.129 295.522 281.19 300.473C296.832 303.445 311.353 291.54 311.505 275.618C311.759 249.093 347.27 240.48 359.648 263.942C367.077 278.025 385.439 281.955 397.981 272.147Z" fill="url(#paint1_linear_17_627)"/>
</g>
<g style="mix-blend-mode:screen" filter="url(#filter2_f_17_627)">
<path d="M397.981 272.147C418.878 255.807 447.753 278.201 437.127 302.506C430.749 317.095 439.125 333.901 454.613 337.592C480.417 343.742 480.912 380.28 455.284 387.127C439.901 391.236 431.984 408.262 438.755 422.673C450.035 446.682 421.777 469.85 400.445 454.082C387.642 444.617 369.393 449.043 362.348 463.322C350.61 487.111 314.879 479.463 313.907 452.953C313.323 437.042 298.485 425.534 282.929 428.929C257.012 434.584 240.713 401.879 260.833 384.591C272.909 374.214 272.655 355.439 260.302 345.393C239.721 328.656 255.129 295.522 281.19 300.473C296.832 303.445 311.353 291.54 311.505 275.618C311.759 249.093 347.27 240.48 359.648 263.942C367.077 278.025 385.439 281.955 397.981 272.147Z" fill="url(#paint2_linear_17_627)"/>
</g>
<g style="mix-blend-mode:screen" filter="url(#filter3_f_17_627)">
<path d="M397.981 272.147C418.878 255.807 447.753 278.201 437.127 302.506C430.749 317.095 439.125 333.901 454.613 337.592C480.417 343.742 480.912 380.28 455.284 387.127C439.901 391.236 431.984 408.262 438.755 422.673C450.035 446.682 421.777 469.85 400.445 454.082C387.642 444.617 369.393 449.043 362.348 463.322C350.61 487.111 314.879 479.463 313.907 452.953C313.323 437.042 298.485 425.534 282.929 428.929C257.012 434.584 240.713 401.879 260.833 384.591C272.909 374.214 272.655 355.439 260.302 345.393C239.721 328.656 255.129 295.522 281.19 300.473C296.832 303.445 311.353 291.54 311.505 275.618C311.759 249.093 347.27 240.48 359.648 263.942C367.077 278.025 385.439 281.955 397.981 272.147Z" fill="url(#paint3_linear_17_627)"/>
</g>
<g filter="url(#filter4_i_17_627)">
<path d="M397.981 272.147C418.878 255.807 447.753 278.201 437.127 302.506C430.749 317.095 439.125 333.901 454.613 337.592C480.417 343.742 480.912 380.28 455.284 387.127C439.901 391.236 431.984 408.262 438.755 422.673C450.035 446.682 421.777 469.85 400.445 454.082C387.642 444.617 369.393 449.043 362.348 463.322C350.61 487.111 314.879 479.463 313.907 452.953C313.323 437.042 298.485 425.534 282.929 428.929C257.012 434.584 240.713 401.879 260.833 384.591C272.909 374.214 272.655 355.439 260.302 345.393C239.721 328.656 255.129 295.522 281.19 300.473C296.832 303.445 311.353 291.54 311.505 275.618C311.759 249.093 347.27 240.48 359.648 263.942C367.077 278.025 385.439 281.955 397.981 272.147Z" fill="url(#paint4_linear_17_627)"/>
</g>
</g>
<defs>
<filter id="filter0_f_17_627" x="0.769287" y="0.276733" width="723.469" height="727.319" filterUnits="userSpaceOnUse" color-interpolation-filters="sRGB">
<feFlood flood-opacity="0" result="BackgroundImageFix"/>
<feBlend mode="normal" in="SourceGraphic" in2="BackgroundImageFix" result="shape"/>
<feGaussianBlur stdDeviation="125" result="effect1_foregroundBlur_17_627"/>
</filter>
<filter id="filter1_f_17_627" x="80.7693" y="80.2767" width="563.469" height="567.319" filterUnits="userSpaceOnUse" color-interpolation-filters="sRGB">
<feFlood flood-opacity="0" result="BackgroundImageFix"/>
<feBlend mode="normal" in="SourceGraphic" in2="BackgroundImageFix" result="shape"/>
<feGaussianBlur stdDeviation="85" result="effect1_foregroundBlur_17_627"/>
</filter>
<filter id="filter2_f_17_627" x="150.769" y="150.277" width="423.469" height="427.319" filterUnits="userSpaceOnUse" color-interpolation-filters="sRGB">
<feFlood flood-opacity="0" result="BackgroundImageFix"/>
<feBlend mode="normal" in="SourceGraphic" in2="BackgroundImageFix" result="shape"/>
<feGaussianBlur stdDeviation="50" result="effect1_foregroundBlur_17_627"/>
</filter>
<filter id="filter3_f_17_627" x="230.769" y="230.277" width="263.469" height="267.319" filterUnits="userSpaceOnUse" color-interpolation-filters="sRGB">
<feFlood flood-opacity="0" result="BackgroundImageFix"/>
<feBlend mode="normal" in="SourceGraphic" in2="BackgroundImageFix" result="shape"/>
<feGaussianBlur stdDeviation="10" result="effect1_foregroundBlur_17_627"/>
</filter>
<filter id="filter4_i_17_627" x="250.769" y="250.277" width="223.469" height="229.319" filterUnits="userSpaceOnUse" color-interpolation-filters="sRGB">
<feFlood flood-opacity="0" result="BackgroundImageFix"/>
<feBlend mode="normal" in="SourceGraphic" in2="BackgroundImageFix" result="shape"/>
<feColorMatrix in="SourceAlpha" type="matrix" values="0 0 0 0 0 0 0 0 0 0 0 0 0 0 0 0 0 0 127 0" result="hardAlpha"/>
<feOffset dy="2"/>
<feGaussianBlur stdDeviation="90"/>
<feComposite in2="hardAlpha" operator="arithmetic" k2="-1" k3="1"/>
<feColorMatrix type="matrix" values="0 0 0 0 1 0 0 0 0 1 0 0 0 0 1 0 0 0 1 0"/>
<feBlend mode="normal" in2="shape" result="effect1_innerShadow_17_627"/>
</filter>
<linearGradient id="paint0_linear_17_627" x1="477.627" y1="209.868" x2="239.068" y2="517.467" gradientUnits="userSpaceOnUse">
<stop stop-color="#00FF1A"/>
<stop offset="1" stop-color="#00FFFF"/>
</linearGradient>
<linearGradient id="paint1_linear_17_627" x1="477.627" y1="209.868" x2="239.068" y2="517.467" gradientUnits="userSpaceOnUse">
<stop stop-color="#00FF1A"/>
<stop offset="1" stop-color="#00FFFF"/>
</linearGradient>
<linearGradient id="paint2_linear_17_627" x1="477.627" y1="209.868" x2="239.068" y2="517.467" gradientUnits="userSpaceOnUse">
<stop stop-color="#00FF1A"/>
<stop offset="1" stop-color="#00FFFF"/>
</linearGradient>
<linearGradient id="paint3_linear_17_627" x1="477.627" y1="209.868" x2="239.068" y2="517.467" gradientUnits="userSpaceOnUse">
<stop stop-color="#00FF1A"/>
<stop offset="1" stop-color="#00FFFF"/>
</linearGradient>
<linearGradient id="paint4_linear_17_627" x1="477.627" y1="209.868" x2="239.068" y2="517.467" gradientUnits="userSpaceOnUse">
<stop stop-color="#00FF1A"/>
<stop offset="1" stop-color="#00FFFF"/>
</linearGradient>
</defs>
</svg>
