<svg width="180" height="180" viewBox="0 0 180 180" fill="none" xmlns="http://www.w3.org/2000/svg">
<rect width="180" height="180" rx="30" fill="#1C2541"/>
<mask id="mask0_15_171" style="mask-type:luminance" maskUnits="userSpaceOnUse" x="40" y="38" width="100" height="105">
<path d="M40.2407 38.3815H139.624V142.073H40.2407V38.3815Z" fill="white"/>
</mask>
<g mask="url(#mask0_15_171)">
<path d="M40.2407 38.3815H139.624V142.073H40.2407V38.3815Z" fill="#FFD600"/>
</g>
<path d="M105.221 115.997C107.131 119.234 109.207 122.336 113.605 122.336C117.299 122.336 119.237 120.421 119.237 117.771C119.237 114.6 117.232 113.474 113.169 111.628L110.941 110.637C104.511 107.791 100.235 104.225 100.235 96.6931C100.235 89.7514 105.328 84.469 113.287 84.469C118.955 84.469 123.027 86.5168 125.964 91.88L119.024 96.5088C117.497 93.663 115.846 92.5426 113.287 92.5426C110.676 92.5426 109.022 94.262 109.022 96.5088C109.022 99.2853 110.678 100.409 114.502 102.128L116.73 103.119C124.308 106.486 128.581 109.925 128.581 117.656C128.581 125.986 122.276 130.551 113.812 130.551C105.533 130.551 100.831 126.216 98.2142 120.85L105.221 115.997ZM73.2359 116.233C74.6327 118.843 76.7559 120.85 79.8089 120.85C82.7297 120.85 84.411 119.646 84.411 114.966V84.4661H93.6121V116.441C93.6121 126.138 88.2207 130.551 80.3472 130.551C73.2331 130.551 68.0983 125.522 66.0057 120.85L73.2359 116.233Z" fill="#000001"/>
</svg>
