<svg width="180" height="180" viewBox="0 0 180 180" fill="none" xmlns="http://www.w3.org/2000/svg">
<rect width="180" height="180" rx="30" fill="#1C2541"/>
<mask id="mask0_15_172" style="mask-type:luminance" maskUnits="userSpaceOnUse" x="33" y="34" width="81" height="87">
<path d="M33.0376 34.0197H113.973V120.043H33.0376V34.0197Z" fill="white"/>
</mask>
<g mask="url(#mask0_15_172)">
<path d="M91.4301 34.0199C86.7752 34.0346 83.5482 34.4407 79.6476 35.1075C68.129 37.0934 66.0305 41.2641 66.0305 48.95V60.6967H92.9715V66.6251H51.9853C44.0944 66.6251 37.1884 70.3064 35.0002 79.1307C32.5277 89.2589 32.4168 95.6021 35.0002 106.178C36.961 114.066 41.2806 119.979 49.1741 119.979H60.0465V104.85C60.0465 96.0587 68.0871 87.3737 77.301 87.3737H98.9616C106.514 87.3737 113.929 81.8546 113.929 74.3998V48.95C113.929 41.7204 108.663 36.3141 101.302 35.1018C101.485 35.0839 96.0459 34.002 91.4301 34.0199ZM76.5106 45.8761C78.9682 45.8761 81.0009 47.8828 81.0009 50.3284C81.0009 52.7974 78.9682 54.7685 76.5106 54.7685C74.005 54.7685 72.0203 52.8002 72.0203 50.3284C72.0203 47.8917 74.005 45.8761 76.5106 45.8761Z" fill="#0277BD"/>
</g>
<mask id="mask1_15_172" style="mask-type:luminance" maskUnits="userSpaceOnUse" x="65" y="60" width="82" height="87">
<path d="M65.9897 60.6566H146.925V146.655H65.9897V60.6566Z" fill="white"/>
</mask>
<g mask="url(#mask1_15_172)">
<path d="M88.5293 146.656C93.1841 146.641 96.4111 146.234 100.312 145.568C111.831 143.582 113.929 139.411 113.929 131.725V119.978H86.9879V114.05H127.977C135.868 114.05 142.774 110.369 144.962 101.545C147.435 91.4161 147.545 85.0729 144.962 74.497C142.998 66.6095 138.679 60.6961 130.785 60.6961H119.913V75.8249C119.913 84.6167 111.873 93.3013 102.659 93.3013H80.9977C73.4453 93.3013 66.0305 98.8205 66.0305 106.275V131.725C66.0305 138.955 71.2961 144.361 78.6569 145.574C78.4743 145.591 83.9134 146.673 88.5293 146.656ZM103.452 134.799C100.994 134.799 98.9616 132.792 98.9616 130.347C98.9616 127.878 100.994 125.907 103.452 125.907C105.957 125.907 107.942 127.875 107.942 130.347C107.942 132.783 105.954 134.799 103.452 134.799Z" fill="#FFC107"/>
</g>
</svg>
