<svg width="364" height="752" viewBox="0 0 364 752" fill="none" xmlns="http://www.w3.org/2000/svg">
<g opacity="0.8">
<g style="mix-blend-mode:screen" filter="url(#filter0_f_17_634)">
<path d="M78.6908 304.156C107.279 297.975 125.182 334.07 102.962 353.09C89.6247 364.506 89.8657 385.209 103.465 396.312C126.123 414.809 109.065 451.311 80.34 445.797C63.0988 442.488 47.0632 455.584 46.8619 473.139C46.5266 502.386 7.35284 511.808 -6.24586 485.913C-14.4081 470.37 -34.6452 465.998 -48.4957 476.786C-71.5712 494.759 -103.362 470.006 -91.5948 443.229C-84.5317 427.156 -93.7314 408.608 -110.801 404.506C-139.241 397.671 -139.71 357.383 -111.437 349.887C-94.4675 345.388 -85.7022 326.631 -93.1376 310.728C-105.525 284.231 -74.3193 258.745 -50.8316 276.176C-36.7337 286.639 -16.6039 281.797 -8.80574 266.068C4.1863 239.863 43.5688 248.37 44.5851 277.602C45.1951 295.147 61.5312 307.866 78.6908 304.156Z" fill="url(#paint0_linear_17_634)"/>
</g>
<g style="mix-blend-mode:screen" filter="url(#filter1_f_17_634)">
<path d="M78.6908 304.156C107.279 297.975 125.182 334.07 102.962 353.09C89.6247 364.506 89.8657 385.209 103.465 396.312C126.123 414.809 109.065 451.311 80.34 445.797C63.0988 442.488 47.0632 455.584 46.8619 473.139C46.5266 502.386 7.35284 511.808 -6.24586 485.913C-14.4081 470.37 -34.6452 465.998 -48.4957 476.786C-71.5712 494.759 -103.362 470.006 -91.5948 443.229C-84.5317 427.156 -93.7314 408.608 -110.801 404.506C-139.241 397.671 -139.71 357.383 -111.437 349.887C-94.4675 345.388 -85.7022 326.631 -93.1376 310.728C-105.525 284.231 -74.3193 258.745 -50.8316 276.176C-36.7337 286.639 -16.6039 281.797 -8.80574 266.068C4.1863 239.863 43.5688 248.37 44.5851 277.602C45.1951 295.147 61.5312 307.866 78.6908 304.156Z" fill="url(#paint1_linear_17_634)"/>
</g>
<g style="mix-blend-mode:screen" filter="url(#filter2_f_17_634)">
<path d="M78.6908 304.156C107.279 297.975 125.182 334.07 102.962 353.09C89.6247 364.506 89.8657 385.209 103.465 396.312C126.123 414.809 109.065 451.311 80.34 445.797C63.0988 442.488 47.0632 455.584 46.8619 473.139C46.5266 502.386 7.35284 511.808 -6.24586 485.913C-14.4081 470.37 -34.6452 465.998 -48.4957 476.786C-71.5712 494.759 -103.362 470.006 -91.5948 443.229C-84.5317 427.156 -93.7314 408.608 -110.801 404.506C-139.241 397.671 -139.71 357.383 -111.437 349.887C-94.4675 345.388 -85.7022 326.631 -93.1376 310.728C-105.525 284.231 -74.3193 258.745 -50.8316 276.176C-36.7337 286.639 -16.6039 281.797 -8.80574 266.068C4.1863 239.863 43.5688 248.37 44.5851 277.602C45.1951 295.147 61.5312 307.866 78.6908 304.156Z" fill="url(#paint2_linear_17_634)"/>
</g>
<g style="mix-blend-mode:screen" filter="url(#filter3_f_17_634)">
<path d="M78.6908 304.156C107.279 297.975 125.182 334.07 102.962 353.09C89.6247 364.506 89.8657 385.209 103.465 396.312C126.123 414.809 109.065 451.311 80.34 445.797C63.0988 442.488 47.0632 455.584 46.8619 473.139C46.5266 502.386 7.35284 511.808 -6.24586 485.913C-14.4081 470.37 -34.6452 465.998 -48.4957 476.786C-71.5712 494.759 -103.362 470.006 -91.5948 443.229C-84.5317 427.156 -93.7314 408.608 -110.801 404.506C-139.241 397.671 -139.71 357.383 -111.437 349.887C-94.4675 345.388 -85.7022 326.631 -93.1376 310.728C-105.525 284.231 -74.3193 258.745 -50.8316 276.176C-36.7337 286.639 -16.6039 281.797 -8.80574 266.068C4.1863 239.863 43.5688 248.37 44.5851 277.602C45.1951 295.147 61.5312 307.866 78.6908 304.156Z" fill="url(#paint3_linear_17_634)"/>
</g>
<g filter="url(#filter4_i_17_634)">
<path d="M78.6908 304.156C107.279 297.975 125.182 334.07 102.962 353.09C89.6247 364.506 89.8657 385.209 103.465 396.312C126.123 414.809 109.065 451.311 80.34 445.797C63.0988 442.488 47.0632 455.584 46.8619 473.139C46.5266 502.386 7.35284 511.808 -6.24586 485.913C-14.4081 470.37 -34.6452 465.998 -48.4957 476.786C-71.5712 494.759 -103.362 470.006 -91.5948 443.229C-84.5317 427.156 -93.7314 408.608 -110.801 404.506C-139.241 397.671 -139.71 357.383 -111.437 349.887C-94.4675 345.388 -85.7022 326.631 -93.1376 310.728C-105.525 284.231 -74.3193 258.745 -50.8316 276.176C-36.7337 286.639 -16.6039 281.797 -8.80574 266.068C4.1863 239.863 43.5688 248.37 44.5851 277.602C45.1951 295.147 61.5312 307.866 78.6908 304.156Z" fill="url(#paint4_linear_17_634)"/>
</g>
</g>
<defs>
<filter id="filter0_f_17_634" x="-382.388" y="0.376709" width="746.323" height="750.65" filterUnits="userSpaceOnUse" color-interpolation-filters="sRGB">
<feFlood flood-opacity="0" result="BackgroundImageFix"/>
<feBlend mode="normal" in="SourceGraphic" in2="BackgroundImageFix" result="shape"/>
<feGaussianBlur stdDeviation="125" result="effect1_foregroundBlur_17_634"/>
</filter>
<filter id="filter1_f_17_634" x="-302.388" y="80.3767" width="586.323" height="590.65" filterUnits="userSpaceOnUse" color-interpolation-filters="sRGB">
<feFlood flood-opacity="0" result="BackgroundImageFix"/>
<feBlend mode="normal" in="SourceGraphic" in2="BackgroundImageFix" result="shape"/>
<feGaussianBlur stdDeviation="85" result="effect1_foregroundBlur_17_634"/>
</filter>
<filter id="filter2_f_17_634" x="-232.388" y="150.377" width="446.323" height="450.65" filterUnits="userSpaceOnUse" color-interpolation-filters="sRGB">
<feFlood flood-opacity="0" result="BackgroundImageFix"/>
<feBlend mode="normal" in="SourceGraphic" in2="BackgroundImageFix" result="shape"/>
<feGaussianBlur stdDeviation="50" result="effect1_foregroundBlur_17_634"/>
</filter>
<filter id="filter3_f_17_634" x="-152.388" y="230.377" width="286.323" height="290.65" filterUnits="userSpaceOnUse" color-interpolation-filters="sRGB">
<feFlood flood-opacity="0" result="BackgroundImageFix"/>
<feBlend mode="normal" in="SourceGraphic" in2="BackgroundImageFix" result="shape"/>
<feGaussianBlur stdDeviation="10" result="effect1_foregroundBlur_17_634"/>
</filter>
<filter id="filter4_i_17_634" x="-132.388" y="250.377" width="246.323" height="252.65" filterUnits="userSpaceOnUse" color-interpolation-filters="sRGB">
<feFlood flood-opacity="0" result="BackgroundImageFix"/>
<feBlend mode="normal" in="SourceGraphic" in2="BackgroundImageFix" result="shape"/>
<feColorMatrix in="SourceAlpha" type="matrix" values="0 0 0 0 0 0 0 0 0 0 0 0 0 0 0 0 0 0 127 0" result="hardAlpha"/>
<feOffset dy="2"/>
<feGaussianBlur stdDeviation="39.35"/>
<feComposite in2="hardAlpha" operator="arithmetic" k2="-1" k3="1"/>
<feColorMatrix type="matrix" values="0 0 0 0 1 0 0 0 0 1 0 0 0 0 1 0 0 0 1 0"/>
<feBlend mode="normal" in2="shape" result="effect1_innerShadow_17_634"/>
</filter>
<linearGradient id="paint0_linear_17_634" x1="187.652" y1="280.598" x2="-196.859" y2="471.315" gradientUnits="userSpaceOnUse">
<stop stop-color="#FF0000"/>
<stop offset="1" stop-color="#FF00F5"/>
</linearGradient>
<linearGradient id="paint1_linear_17_634" x1="187.652" y1="280.598" x2="-196.859" y2="471.315" gradientUnits="userSpaceOnUse">
<stop stop-color="#FF0000"/>
<stop offset="1" stop-color="#FF00F5"/>
</linearGradient>
<linearGradient id="paint2_linear_17_634" x1="187.652" y1="280.598" x2="-196.859" y2="471.315" gradientUnits="userSpaceOnUse">
<stop stop-color="#FF0000"/>
<stop offset="1" stop-color="#FF00F5"/>
</linearGradient>
<linearGradient id="paint3_linear_17_634" x1="187.652" y1="280.598" x2="-196.859" y2="471.315" gradientUnits="userSpaceOnUse">
<stop stop-color="#FF0000"/>
<stop offset="1" stop-color="#FF00F5"/>
</linearGradient>
<linearGradient id="paint4_linear_17_634" x1="187.652" y1="280.598" x2="-196.859" y2="471.315" gradientUnits="userSpaceOnUse">
<stop stop-color="#FF0000"/>
<stop offset="1" stop-color="#FF00F5"/>
</linearGradient>
</defs>
</svg>
